<svg width="124.668" height="99.668" xmlns="http://www.w3.org/2000/svg">

 <g>
  <title>background</title>
  <rect fill="none" id="canvas_background" height="101.668" width="126.668" y="-1" x="-1"/>
 </g>
 <g>
  <title>Layer 1</title>
  <g stroke="null" id="svg_1">
   <path stroke="null" id="svg_2" d="M48.4 26.5c-.9 0-1.7.7-1.7 1.7v11.6h-43.3v-11.6c0-.9-.7-1.7-1.7-1.7s-1.7.7-1.7 1.7v13.2c0 .9.7 1.7 1.7 1.7h46.7c.9 0 1.7-.7 1.7-1.7v-13.2c0-1-.7-1.7-1.7-1.7zm-24.5 6.1c.3.3.8.5 1.2.5.4 0 .9-.2 1.2-.5l10-11.6c.7-.7.7-1.7 0-2.4s-1.7-.7-2.4 0l-7.1 8.3v-25.3c0-.9-.7-1.7-1.7-1.7s-1.7.7-1.7 1.7v25.3l-7.1-8.3c-.7-.7-1.7-.7-2.4 0s-.7 1.7 0 2.4l10 11.6z"/>
  </g>
  <g id="svg_3"/>
  <g id="svg_4"/>
  <g id="svg_5"/>
  <g id="svg_6"/>
  <g id="svg_7"/>
  <g id="svg_8"/>
  <g id="svg_9"/>
  <g id="svg_10"/>
  <g id="svg_11"/>
  <g id="svg_12"/>
  <g id="svg_13"/>
  <g id="svg_14"/>
  <g id="svg_15"/>
  <g id="svg_16"/>
  <g id="svg_17"/>
 </g>
</svg>
